<?xml version="1.0" encoding="UTF-8" standalone="no"?><svg id="svg2" xmlns:rdf="http://www.w3.org/1999/02/22-rdf-syntax-ns#" xmlns="http://www.w3.org/2000/svg" viewBox="0 0 400.00067 83.176744" height="83.179" width="400" version="1.1" xmlns:cc="http://creativecommons.org/ns#" xmlns:dc="http://purl.org/dc/elements/1.1/"><defs id="defs4"><radialGradient id="radialGradient5217" gradientUnits="userSpaceOnUse" cy="-230.95" cx="-219.25" gradientTransform="matrix(.0038274 .66484 -.91705 .0013334 -20.314 563.03)" r="233.88"><stop id="stop4289" stop-color="#fff" offset="0"/><stop id="stop4291" stop-color="#ccc" offset="1"/></radialGradient></defs><metadata id="metadata7"><rdf:RDF><cc:Work rdf:about=""><dc:format>image/svg+xml</dc:format><dc:type rdf:resource="http://purl.org/dc/dcmitype/StillImage"/><dc:title/></cc:Work></rdf:RDF></metadata><text id="text4138" font-size="76.763px" style="word-spacing:0px;letter-spacing:0px" line-height="125%" y="803.52625" x="537.58582" font-family="Sans" xml:space="preserve" fill="#ffffff"><tspan id="tspan4140" font-family="&apos;Xpress Heavy SF&apos;" font-size="345.43px" y="803.52625" x="537.58582" font-weight="bold" fill="#ffffff">B</tspan></text><rect id="rect4484" height="149.5" width="525.28" y="600.55" x="-16.429" fill="#fff"/><path id="path4509" fill="#800080" d="m386.62-616.71-58.609 141.49-141.49 58.609-141.49-58.609-58.609-141.49 58.609-141.49 141.49-58.609 141.49 58.609z"/><text id="text4549" font-size="70.048px" style="word-spacing:0px;letter-spacing:0px" line-height="125%" y="-238.01677" x="12.727027" font-family="Sans" xml:space="preserve" fill="#ff00ff"><tspan id="tspan4551" font-size="90px" y="-238.01677" x="12.727027" font-family="Cinzel" fill="#ff00ff">BALASH</tspan></text><text id="text4570" font-size="40px" style="word-spacing:0px;letter-spacing:0px" line-height="125%" y="-211.58766" x="57.584728" font-family="Sans" xml:space="preserve" fill="#b3b3b3"><tspan id="tspan4572" font-family="&apos;DejaVu Sans&apos;" font-size="22.5px" y="-211.58766" x="57.584728" font-weight="200" fill="#b3b3b3">EYELASH ARTIST SHOP</tspan></text><rect id="rect5215" height="136.72" width="467.76" y="415.03" x="-48.841" fill="url(#radialGradient5217)"/><rect id="rect4500" height="13.784" width="13.784" y="384.69" x="13.196" fill="#808080"/><rect id="rect4509" height="13.784" width="13.784" y="384.69" x="26.986" fill="#ccc"/><rect id="rect4511" height="13.784" width="13.784" y="384.69" x="40.766" fill="#808080"/><rect id="rect4513" height="13.784" width="13.784" y="384.69" x="40.766" fill="#808080"/><rect id="rect4517" height="13.784" width="13.784" y="384.69" x="54.546" fill="#ccc"/><rect id="rect4519" height="13.784" width="13.784" y="384.69" x="68.336" fill="#808080"/><rect id="rect4521" height="13.784" width="13.784" y="384.69" x="95.906" fill="#808080"/><rect id="rect4523" height="13.784" width="13.784" y="384.69" x="82.116" fill="#ccc"/><rect id="rect4533" height="13.784" width="13.784" y="384.69" x="109.69" fill="#ccc"/><rect id="rect4535" height="13.784" width="13.784" y="384.69" x="123.47" fill="#808080"/><rect id="rect4537" height="13.784" width="13.784" y="384.69" x="151.04" fill="#808080"/><rect id="rect4539" height="13.784" width="13.784" y="384.69" x="137.26" fill="#ccc"/><rect id="rect4543" height="13.784" width="13.784" y="384.69" x="164.83" fill="#ccc"/><rect id="rect4545" height="13.784" width="13.784" y="384.69" x="178.61" fill="#808080"/><rect id="rect4547" height="13.784" width="13.784" y="384.69" x="206.18" fill="#808080"/><rect id="rect4549" height="13.784" width="13.784" y="384.69" x="192.4" fill="#ccc"/><rect id="rect4555" height="13.784" width="13.784" y="384.69" x="219.96" fill="#ccc"/><rect id="rect4557" height="13.784" width="13.784" y="384.69" x="233.75" fill="#808080"/><rect id="rect4674" height="13.784" width="13.784" y="384.69" x="261.32" fill="#808080"/><rect id="rect4676" height="13.784" width="13.784" y="384.69" x="247.53" fill="#ccc"/><rect id="rect4678" height="13.784" width="13.784" y="384.69" x="275.1" fill="#ccc"/><rect id="rect4680" height="13.784" width="13.784" y="384.69" x="288.88" fill="#808080"/><rect id="rect4686" height="13.784" width="13.784" y="384.69" x="316.45" fill="#808080"/><rect id="rect4688" height="13.784" width="13.784" y="384.69" x="302.67" fill="#ccc"/><rect id="rect4690" height="13.784" width="13.784" y="384.69" x="330.24" fill="#ccc"/><rect id="rect4692" height="13.784" width="13.784" y="384.69" x="344.02" fill="#808080"/><g id="g5099" transform="translate(-113.4 175.38)"><path id="path4990" d="m126.6 317.56h7.4532v0.73297h-6.5525v5.0601h6.2787v0.7153h-6.2787v5.9608h6.7114v0.7153h-7.6122v-13.184z"/><path id="path4992" d="m139.62 317.56h1.0244l4.1064 6.0756 4.0798-6.0756h1.0067l-4.6627 6.9057v6.2787h-0.89192v-6.2787l-4.6627-6.9057z"/><path id="path4994" d="m155.24 317.56h7.4532v0.73297h-6.5525v5.0601h6.2787v0.7153h-6.2787v5.9608h6.7115v0.7153h-7.6122v-13.184z"/><path id="path4996" d="m168.25 317.56h0.88309v12.46h6.42v0.72413h-7.3031v-13.184z"/><path id="path4998" d="m186.56 318.45-2.8259 7.4179h5.6076l-2.7817-7.4179zm-0.56517-0.89192h1.1568l5.0424 13.184h-1.0067l-1.5719-4.1417h-6.1551l-1.5631 4.1417h-0.93607l5.0336-13.184z"/><path id="path5000" d="m205.56 318.22v0.8301q-0.86543-0.43271-1.9163-0.76828-0.68881-0.22078-1.7397-0.23844-1.5542-0.0265-2.5256 0.68881-0.88309 0.65348-0.88309 2.243 0 0.98022 0.67115 1.5542 0.71529 0.60933 2.1547 0.98022l1.0509 0.27376q1.4129 0.3709 2.1812 0.88309 1.4394 0.98022 1.4394 2.4638 0 2.1459-1.2628 2.976-1.3776 0.89192-2.8259 0.89192-1.5101 0-2.7022-0.41505-0.75062-0.30025-1.5719-0.8301v-0.86542q1.2363 0.73296 1.7308 0.93607 1.1039 0.45037 2.0488 0.45037 1.616 0 2.6846-0.7153 1.0067-0.67114 1.0067-2.3578 0-0.98905-0.61816-1.5542-0.89191-0.82127-2.3137-1.1657l-1.0597-0.2561q-1.2716-0.30908-2.1636-0.86542-1.3511-0.84776-1.3511-2.3137 0-1.828 1.1039-2.8082 1.0244-0.90958 3.1085-0.91841 1.2275 0 1.881 0.21194 1.6779 0.54752 1.8722 0.68881z"/><path id="path5002" d="m211.39 317.56h0.89191v5.793h7.3738v-5.793h0.89192v13.184h-0.89192v-6.6761h-7.3738v6.6761h-0.89191v-13.184z"/><path id="path5004" d="m241.4 318.3v6.058h2.7111q1.4748 0 2.2784-0.78594 0.81244-0.78595 0.81244-2.2519 0-1.4394-0.81244-2.2342-0.80361-0.78594-2.2784-0.78594h-2.7111zm-0.88308-0.73297h3.5942q1.9693 0 2.9848 0.95374 1.0067 0.95373 1.0067 2.7994 0 1.8545-1.0067 2.8082-1.0156 0.95374-2.9848 0.95374h-2.7111v5.6694h-0.88308v-13.184z"/><path id="path5006" d="m258.93 324.57q0.54751 0.19427 1.0597 0.8301 0.36207 0.4592 1.0332 1.7485l1.8456 3.603h-0.9449l-1.881-3.6207q-0.73297-1.4218-1.4041-1.881-0.68881-0.4592-1.8633-0.4592h-2.3932v5.9608h-0.88308v-13.184h3.5765q2.0223 0 3.0202 0.94491 0.99789 0.9449 0.99789 2.8524 0 1.2275-0.52102 2.0664-0.49453 0.82127-1.6425 1.1392zm-4.5479-6.2787v5.7666h2.9142q1.4129 0 2.1371-0.73297 0.72413-0.73296 0.72413-2.1636 0-1.4218-0.72413-2.1459-0.72413-0.72413-2.1371-0.72413h-2.9142z"/><path id="path5008" d="m277.36 319.66q-1.2716-1.6514-3.4352-1.6514t-3.444 1.6514q-1.2716 1.6514-1.2716 4.5037 0 2.8347 1.2716 4.4861 1.2805 1.6514 3.444 1.6514 2.1636 0 3.4352-1.6514 1.2628-1.6514 1.2628-4.4861 0-2.8524-1.2628-4.5037zm-3.4352-2.3402q2.561 0 4.0975 1.8545 1.5366 1.8633 1.5366 4.9894 0 3.1173-1.5366 4.9718-1.5366 1.8633-4.0975 1.8633-2.5698 0-4.1152-1.8545-1.5366-1.8545-1.5366-4.9806t1.5366-4.9894q1.5454-1.8545 4.1152-1.8545z"/><path id="path5010" d="m284.97 317.56h6.685v0.73297h-5.793v5.0601h5.2279v0.7153h-5.2279v6.6761h-0.89192v-13.184z"/><path id="path5012" d="m297.05 317.56h7.4532v0.73297h-6.5525v5.0601h6.2787v0.7153h-6.2787v5.9608h6.7114v0.7153h-7.6122v-13.184z"/><path id="path5014" d="m318.03 318.22v0.8301q-0.86542-0.43271-1.9163-0.76828-0.6888-0.22078-1.7397-0.23844-1.5542-0.0265-2.5256 0.68881-0.88309 0.65348-0.88309 2.243 0 0.98022 0.67115 1.5542 0.7153 0.60933 2.1547 0.98022l1.0509 0.27376q1.4129 0.3709 2.1812 0.88309 1.4394 0.98022 1.4394 2.4638 0 2.1459-1.2628 2.976-1.3776 0.89192-2.8259 0.89192-1.5101 0-2.7022-0.41505-0.75062-0.30025-1.5719-0.8301v-0.86542q1.2363 0.73296 1.7308 0.93607 1.1039 0.45037 2.0488 0.45037 1.616 0 2.6846-0.7153 1.0067-0.67114 1.0067-2.3578 0-0.98905-0.61816-1.5542-0.89192-0.82127-2.3137-1.1657l-1.0597-0.2561q-1.2716-0.30908-2.1636-0.86542-1.3511-0.84776-1.3511-2.3137 0-1.828 1.1038-2.8082 1.0244-0.90958 3.1085-0.91841 1.2275 0 1.881 0.21194 1.6779 0.54752 1.8721 0.68881z"/><path id="path5016" d="m331.83 318.22v0.8301q-0.86543-0.43271-1.9163-0.76828-0.6888-0.22078-1.7397-0.23844-1.5542-0.0265-2.5256 0.68881-0.88309 0.65348-0.88309 2.243 0 0.98022 0.67115 1.5542 0.7153 0.60933 2.1547 0.98022l1.0509 0.27376q1.4129 0.3709 2.1812 0.88309 1.4394 0.98022 1.4394 2.4638 0 2.1459-1.2628 2.976-1.3776 0.89192-2.8259 0.89192-1.5101 0-2.7022-0.41505-0.75062-0.30025-1.5719-0.8301v-0.86542q1.2363 0.73296 1.7308 0.93607 1.1038 0.45037 2.0488 0.45037 1.616 0 2.6846-0.7153 1.0067-0.67114 1.0067-2.3578 0-0.98905-0.61816-1.5542-0.89191-0.82127-2.3137-1.1657l-1.0597-0.2561q-1.2716-0.30908-2.1636-0.86542-1.3511-0.84776-1.3511-2.3137 0-1.828 1.1039-2.8082 1.0244-0.90958 3.1085-0.91841 1.2275 0 1.881 0.21194 1.6779 0.54752 1.8721 0.68881z"/><path id="path5018" d="m337.67 317.56h0.91841v13.184h-0.91841v-13.184z"/><path id="path5020" d="m353.08 319.66q-1.2716-1.6514-3.4352-1.6514t-3.444 1.6514q-1.2716 1.6514-1.2716 4.5037 0 2.8347 1.2716 4.4861 1.2805 1.6514 3.444 1.6514 2.1636 0 3.4352-1.6514 1.2628-1.6514 1.2628-4.4861 0-2.8524-1.2628-4.5037zm-3.4352-2.3402q2.561 0 4.0975 1.8545 1.5366 1.8633 1.5366 4.9894 0 3.1173-1.5366 4.9718-1.5366 1.8633-4.0975 1.8633-2.5698 0-4.1152-1.8545-1.5366-1.8545-1.5366-4.9806t1.5366-4.9894q1.5454-1.8545 4.1152-1.8545z"/><path id="path5022" d="m360.68 317.56h1.307l6.3935 12.054v-12.054h0.88309v13.184h-1.254l-6.4289-12.134v12.134h-0.90075v-13.184z"/><path id="path5024" d="m380.27 318.45-2.8259 7.4179h5.6076l-2.7817-7.4179zm-0.56518-0.89192h1.1568l5.0424 13.184h-1.0067l-1.5719-4.1417h-6.1551l-1.5631 4.1417h-0.93607l5.0336-13.184z"/><path id="path5026" d="m391.3 317.56h0.88308v12.46h6.42v0.72413h-7.3031v-13.184z"/><path id="path5028" d="m426.53 318.22v0.8301q-0.86542-0.43271-1.9163-0.76828-0.68881-0.22078-1.7397-0.23844-1.5542-0.0265-2.5256 0.68881-0.88308 0.65348-0.88308 2.243 0 0.98022 0.67114 1.5542 0.7153 0.60933 2.1547 0.98022l1.0509 0.27376q1.4129 0.3709 2.1812 0.88309 1.4394 0.98022 1.4394 2.4638 0 2.1459-1.2628 2.976-1.3776 0.89192-2.8259 0.89192-1.5101 0-2.7022-0.41505-0.75063-0.30025-1.5719-0.8301v-0.86542q1.2363 0.73296 1.7308 0.93607 1.1039 0.45037 2.0488 0.45037 1.616 0 2.6846-0.7153 1.0067-0.67114 1.0067-2.3578 0-0.98905-0.61816-1.5542-0.89192-0.82127-2.3137-1.1657l-1.0597-0.2561q-1.2716-0.30908-2.1636-0.86542-1.3511-0.84776-1.3511-2.3137 0-1.828 1.1039-2.8082 1.0244-0.90958 3.1085-0.91841 1.2275 0 1.881 0.21194 1.6779 0.54752 1.8721 0.68881z"/><path id="path5030" d="m432.37 317.56h0.89191v5.793h7.3738v-5.793h0.89192v13.184h-0.89192v-6.6761h-7.3738v6.6761h-0.89191v-13.184z"/><path id="path5032" d="m456.02 319.66q-1.2716-1.6514-3.4352-1.6514t-3.444 1.6514q-1.2716 1.6514-1.2716 4.5037 0 2.8347 1.2716 4.4861 1.2805 1.6514 3.444 1.6514 2.1636 0 3.4352-1.6514 1.2628-1.6514 1.2628-4.4861 0-2.8524-1.2628-4.5037zm-3.4352-2.3402q2.561 0 4.0975 1.8545 1.5366 1.8633 1.5366 4.9894 0 3.1173-1.5366 4.9718-1.5366 1.8633-4.0975 1.8633-2.5698 0-4.1152-1.8545-1.5366-1.8545-1.5366-4.9806t1.5366-4.9894q1.5454-1.8545 4.1152-1.8545z"/><path id="path5034" d="m464.5 318.3v6.058h2.7111q1.4748 0 2.2784-0.78594 0.81244-0.78595 0.81244-2.2519 0-1.4394-0.81244-2.2342-0.80361-0.78594-2.2784-0.78594h-2.7111zm-0.88309-0.73297h3.5942q1.9693 0 2.9848 0.95374 1.0067 0.95373 1.0067 2.7994 0 1.8545-1.0067 2.8082-1.0156 0.95374-2.9848 0.95374h-2.7111v5.6694h-0.88309v-13.184z"/></g><text id="text4605" font-size="40px" style="word-spacing:0px;letter-spacing:0px" line-height="125%" y="-104.62303" x="46.736752" font-family="Sans" xml:space="preserve" fill="#808080"><tspan id="tspan4607" font-size="17.5px" font-family="&apos;DejaVu Sans&apos;" style="letter-spacing:4.7px" y="-104.62303" x="46.736752" font-weight="200">Eyelash Artists Shop</tspan></text><circle id="path4618" cy="-118.49" cx="-4.6439" r="51.471" fill="#800080"/><path id="path4554" fill="#fff" d="m53.359-0.00039204-0.944 0.9045c-2.667 2.559-7.109 9.3439-9.267 14.158l-1.3568 3.0315 1.4804 1.3038c0.81452 0.71814 1.5572 1.2172 1.65 1.1094 0.0928-0.10787 0.50498-1.0639 0.91863-2.127 1.4812-3.8069 6.2364-11.817 7.2431-12.204 0.45442-0.17439 0.63283 0.02947 2.7276 3.1269 1.8026 2.6652 3.9355 6.6676 4.9854 9.3524 0.41575 1.0631 0.79133 1.9771 0.83384 2.0315 0.04251 0.05438 0.75528-0.4868 1.5829-1.2013l1.5016-1.2967-0.68545-1.6959c-1.988-4.892-5.494-10.513-9.289-14.896l-1.381-1.5966zm126.58 9.1051c0 1.6892-2.8407 7.9074-2.8407 7.9074l-17.429 41.385c-1.5357 3.3785-4.3753 4.7628-6.7556 4.7628h-0.6925v0.76671h15.511v-0.68898h-0.69251c-1.9964 0-3.9934-1.7692-2.9185-4.8405l5.1445-13.129h20.655l4.9147 13.129c1.1518 3.0713-0.92208 4.8405-2.9185 4.8405h-0.68896v0.68898h17.274v-0.76671h-0.61125c-2.3803 0-5.2233-1.3843-6.759-4.7628l-20.5-49.292h-0.6925zm97.931 0c0 1.6892-2.8407 7.9074-2.8407 7.9074l-17.429 41.385c-1.5356 3.3785-4.3787 4.7628-6.759 4.7628h-0.68898v0.76671h15.507v-0.68898h-0.68898c-1.9964 0-3.9934-1.7692-2.9185-4.8405l5.1445-13.129h20.655l4.9147 13.129c1.1518 3.0713-0.92205 4.8405-2.9185 4.8405h-0.6925v0.68898h17.277v-0.76671h-0.61479c-2.3803 0-5.2199-1.3843-6.7556-4.7628l-20.503-49.292h-0.68898zm47.06 0c-8.7532 0-13.437 6.5242-13.437 12.974 0 2.9946 0.99635 6.681 4.1444 9.5221l14.666 13.667c1.9195 1.8428 3.0739 4.147 3.0739 7.2183 0 6.066-4.6871 9.9049-10.292 10.289-6.8337 0.30713-11.901-4.6846-11.133-12.67h-0.61478c-1.2285 3.4552-1.4561 8.3714-0.91865 10.752 2.9946 3.148 9.2117 4.2222 12.974 4.2222 8.8301 0 14.437-5.9127 14.437-14.359 0-3.148-0.84351-6.5256-3.9149-9.3665l-15.052-13.974c-2.457-2.3036-3.0704-5.0676-3.0704-7.1407 0-4.607 3.7624-8.8296 9.4443-8.8296 4.7606 0 8.5998 2.9932 8.5998 7.9074h0.7667v-8.4479-0.91863h-3.0704c-2.0731-0.4607-4.5305-0.84445-6.6036-0.84445zm-238.79 0.8515c-1.0454 0-7.5278 2.3901-10.73 3.9572-10.197 4.99-17.408 12.113-20.974 20.711-0.51061 1.2314-1.0315 2.273-1.1589 2.3143-0.12736 0.04135-0.54249-0.75725-0.92218-1.7737-3.108-8.323-10.674-16.038-20.598-21.003-4.787-2.396-11.307-4.5806-11.712-3.925-0.47421 0.76729-0.92433 5.7004-0.90805 9.9389 0.01881 4.7557 0.67368 10.384 1.272 10.932 0.25925 0.23731 3.389 1.219 3.8865 1.219 0.06386 0-0.0483-0.65482-0.25086-1.4522-0.76183-2.9981-1.0595-6.0164-1.0776-10.882-0.01085-2.7589 0.05735-5.0954 0.15196-5.1902 0.48565-0.48633 8.2147 3.2148 12.115 5.8015 7.3842 4.8968 11.989 10.768 14.486 18.465 1.4755 4.5468 1.6297 5.852 1.2684 10.829-0.17403 2.3975-0.36745 4.4095-0.42751 4.4695-0.18 0.18005-1.9141-2.6799-3.2365-5.3351-2.7368-5.496-4.0348-10.177-4.2787-15.423l-0.16607-3.5473-1.5299-1.7702c-1.3363-1.546-1.5683-1.7112-1.809-1.2861-0.15268 0.26952-0.27568 2.4599-0.27206 4.904 0.0054 4.1732 0.35243 6.8232 1.3815 10.564 0.21934 0.79725-0.43691 0.83723-1.1306 0.07066-0.942-1.043-5.814-4.121-8.701-5.498-5.95-2.838-12.397-4.47-19.924-5.049-4.076-0.313-10.403-0.09-10.875 0.382-0.24697 0.24697 2.1285 5.035 3.876 7.8155 7.4955 11.926 17.064 19.418 29.071 22.757 3.6064 1.0032 5.376 1.3567 9.1581 1.8338 2.0833 0.26234 5.6267 0.33854 12.441 0.26853 9.8707-0.10138 12.187-0.31898 17.394-1.6465 5.235-1.334 10.74-3.696 14.542-6.235 7.876-5.261 15.29-14.013 19.24-22.698l0.97164-2.1305-1.0176-0.21905c-1.9208-0.40826-11.041-0.21999-14.408 0.29679-9.3019 1.4277-16.68 4.3606-23.083 9.1793-1.139 0.85724-2.15 1.4822-2.2472 1.385-0.09714-0.0972-0.02677-0.76525 0.15539-1.4839 1.049-4.1372 1.4902-10.813 0.92571-13.992l-0.1908-1.0847-1.5476 1.7348-1.544 1.7348-0.18018 3.1728c-0.21782 3.8138-0.73265 6.4627-1.9751 10.204-1.3244 3.988-4.8257 10.868-5.533 10.868-0.30712-0.000002-0.81469-6.0605-0.73491-8.7766 0.0436-1.4851 1.1492-5.6817 2.2542-8.5468 2.9056-7.5343 9.0979-13.999 17.963-18.758 2.0049-1.0762 6.0795-2.8747 7.4162-3.2718l0.65718-0.19432-0.1449 6.3104c-0.11035 4.842-0.2705 6.8911-0.68898 8.7978-0.29999 1.3669-0.52541 2.5107-0.50171 2.5404s0.89626-0.16064 1.9398-0.424c2.2596-0.57029 2.1976-0.45851 2.8088-5.109 0.775-5.84 0.191-16.749-0.89-16.749zm26.545 0.2226v0.76671h0.99992c2.6106 0 4.9147 2.1496 4.9147 4.8369v42.615c-0.0767 2.6875-2.3041 4.8405-4.9147 4.8405h-0.99992v0.76671h18.736c11.441 0 17.892-5.7602 17.892-14.437 0-7.6016-4.9914-13.59-13.207-14.818 4.3767-1.2285 8.5221-5.1436 8.5221-11.67 0-7.6783-5.914-12.822-16.74-12.822l-15.203-0.07773zm234.1 0v0.76671h0.92216c2.6875 0 4.838 2.1496 4.9147 4.8369v42.615c0 2.6106-2.2272 4.8405-4.9147 4.8405h-0.92216l-0.0778 0.76671h16.818v-0.76671h-0.9999c-2.6875 0-4.838-2.23-4.9147-4.8405v-19.885h31.48v19.885c-0.0769 2.6875-2.3005 4.8405-4.9111 4.8405h-0.99989v0.76671l16.815-0.07773-0.0742-0.76671h-0.92216c-2.6875 0-4.9147-2.1522-4.9147-4.7628v-42.615c0-2.6875 2.2272-4.8369 4.9147-4.8369h0.92216l0.0742-0.76671h-16.815v0.76671h0.99989c2.6106 0 4.7577 2.1522 4.9111 4.7628v20.5h-31.48v-20.426c0.0769-2.6875 2.3041-4.8369 4.9147-4.8369h0.9999v-0.76671h-16.74zm-134.37 0.07773v0.76671h0.92216c2.6875 0 4.9147 2.1486 4.9147 4.7593v42.615c0 2.6106-2.2272 4.8405-4.9147 4.8405h-0.92216v0.76671h31.788l4.4554-12.441h-0.77026c-2.3803 5.8355-5.4496 10.059-13.589 10.059h-11.055v-45.84c0.0769-2.6106 2.2238-4.7593 4.9111-4.7593h0.99991v-0.76671h-16.74zm-88.826 2.4556h4.0703c7.2945 0 11.211 3.993 11.211 10.903 0 9.9051-7.9864 11.288-12.67 11.211v0.76671c7.448 0 17.355 1.9185 17.355 13.359 0 7.8319-4.5318 12.288-12.441 12.211h-7.5258v-48.451zm56.202 5.6814 9.2889 24.57h-18.888l9.5997-24.57zm97.927 0 9.2923 24.57h-18.888l9.5962-24.57zm-177.62 17.235c0.25722 0.0063 0.41581 0.02717 0.45225 0.0636 0.0915 0.09155-0.45564 1.1704-1.2154 2.3955-3.9523 6.3724-9.3591 12.071-15.055 15.868-4.9864 3.3237-12.325 5.9343-19.083 6.7838-3.832 0.48178-4.8335 0.57235-4.8335 0.43812 0-0.07176 1.3971-0.83312 3.1057-1.6889 8.7451-4.3802 15.211-10.274 19.009-17.334l1.173-2.1835-0.80557 0.2014c-0.44319 0.11073-1.7031 0.5748-2.8018 1.0317-1.8343 0.76275-2.1419 1.0149-3.7629 3.0845-2.715 3.4661-6.1571 6.5557-10.133 9.0944-1.9226 1.2276-6.6134 3.6083-6.7802 3.4413-0.25603-0.25601 3.9574-5.3999 6.5047-7.9426 1.4515-1.4489 3.7562-3.4744 5.1231-4.4977 4.641-3.4749 11.49-6.3825 17.98-7.6353 2.7293-0.52677 9.322-1.1647 11.123-1.12zm-93.197 0.04946c1.7539-0.02565 5.6009 0.26155 8.3137 0.67485 5.8751 0.89504 12.181 2.9892 16.267 5.3988 3.3854 1.9966 5.4509 3.5947 8.667 6.706 3.0315 2.9328 7.2149 8.0027 6.8791 8.3384-0.3611 0.36111-6.7178-3.3365-10.137-5.897-1.9078-1.4287-5.4241-4.9775-6.9392-7.0063-1.2995-1.7401-1.4796-1.8725-3.9713-2.8796-1.4365-0.58055-2.6907-0.98036-2.7842-0.88683-0.26318 0.26321 1.9939 4.1747 3.7629 6.5224 3.8579 5.1199 10.589 10.376 17.207 13.433 1.1623 0.537 2.1129 1.0344 2.1129 1.1059 0 0.07146-0.15286 0.11194-0.34272 0.09186-0.18984-0.02019-1.3949-0.14508-2.6782-0.27913-14.291-1.494-25.158-7.754-33.698-19.418-1.4706-2.009-3.5863-5.41-3.5863-5.766 0-0.08515 0.35165-0.12924 0.93631-0.13779zm283.27 36.47c-1.0998 0.0054-1.9186 0.24785-2.4592 0.72784-0.58252 0.51729-0.8727 1.2578-0.8727 2.2224 0 0.77359 0.35404 1.3828 1.067 1.8302 0.47069 0.2936 1.0426 0.52233 1.7136 0.68545l0.83738 0.2014c0.75027 0.18175 1.363 0.4923 1.8338 0.92571 0.3262 0.29823 0.48758 0.70761 0.48758 1.2295 0 0.89009-0.26371 1.5114-0.79497 1.8655-0.56386 0.37747-1.2742 0.56532-2.127 0.56532-0.49864 0-1.0392-0.11921-1.6218-0.35684-0.26097-0.10709-0.71492-0.35165-1.3674-0.73844v0.68191c0.43341 0.27962 0.8476 0.49873 1.2437 0.65718 0.62912 0.21904 1.3407 0.32859 2.1375 0.32859 0.76427 0 1.5096-0.23242 2.2365-0.70311 0.6664-0.43805 0.99991-1.2242 0.99991-2.3566 0-0.7829-0.3781-1.433-1.1377-1.9503-0.40542-0.27028-0.98211-0.50384-1.7278-0.69958l-0.8303-0.21552c-0.7596-0.19572-1.3291-0.45576-1.7066-0.77731-0.35416-0.3029-0.53351-0.71228-0.53351-1.2295 0-0.83884 0.23354-1.4324 0.69958-1.7772 0.5126-0.37747 1.1796-0.5581 1.9999-0.54411 0.55455 0.009 1.0145 0.07435 1.378 0.1908 0.55455 0.1771 1.059 0.37937 1.5158 0.60772v-0.65718c-0.10257-0.07453-0.59498-0.25872-1.4804-0.54766-0.34483-0.1118-0.84325-0.16607-1.491-0.16607zm-95.892 0.20138c-1.0998 0.0054-1.9221 0.24785-2.4626 0.72786-0.5825 0.51727-0.8727 1.2578-0.8727 2.2224 0 0.77359 0.35757 1.3828 1.0706 1.8302 0.47067 0.2936 1.039 0.52235 1.7101 0.68545l0.84092 0.20492c0.75028 0.18175 1.3595 0.48878 1.8302 0.92216 0.3262 0.29825 0.49113 0.70763 0.49113 1.2296 0 0.89009-0.26726 1.5114-0.79852 1.8655-0.56386 0.37747-1.2707 0.56886-2.1234 0.56886-0.49864 0-1.0392-0.11921-1.6217-0.35686-0.26097-0.10728-0.71849-0.35518-1.3709-0.74198v0.68545c0.43337 0.27962 0.84758 0.49873 1.2437 0.65718 0.62912 0.21902 1.3442 0.32859 2.1411 0.32859 0.76427 0 1.5096-0.23597 2.2365-0.70664 0.66638-0.43807 0.99989-1.2243 0.99989-2.3566 0-0.7829-0.38163-1.4331-1.1412-1.9503-0.40543-0.2703-0.98211-0.50384-1.7277-0.69958l-0.83032-0.21552c-0.7596-0.19574-1.3291-0.45222-1.7065-0.77379-0.35417-0.3029-0.52999-0.71581-0.52999-1.2331 0-0.8388 0.23358-1.4288 0.69958-1.7737 0.51262-0.37747 1.1796-0.56162 1.9999-0.54764 0.55455 0.009 1.0109 0.07435 1.3744 0.1908 0.55455 0.1771 1.0626 0.37935 1.5193 0.60772v-0.6572c-0.10257-0.07453-0.59853-0.25518-1.484-0.54411-0.34485-0.1118-0.83972-0.1695-1.4875-0.1695zm126.69 0c-1.0998 0.0054-1.9221 0.24785-2.4626 0.72786-0.58252 0.51727-0.8727 1.2578-0.8727 2.2224 0 0.77359 0.35755 1.3828 1.0706 1.8302 0.47067 0.2936 1.0426 0.52235 1.7136 0.68545l0.83738 0.20492c0.75028 0.18175 1.3595 0.48878 1.8302 0.92216 0.3262 0.29825 0.49111 0.70763 0.49111 1.2296 0 0.89009-0.26724 1.5114-0.7985 1.8655-0.56386 0.37747-1.2707 0.56886-2.1234 0.56886-0.49866 0-1.0392-0.11921-1.6218-0.35686-0.26097-0.10728-0.71847-0.35518-1.3709-0.74198v0.68545c0.43339 0.27962 0.84758 0.49873 1.2437 0.65718 0.62912 0.21902 1.3442 0.32859 2.1411 0.32859 0.76427 0 1.5096-0.23597 2.2365-0.70664 0.6664-0.43807 0.99991-1.2243 0.99991-2.3566 0-0.7829-0.38164-1.4331-1.1412-1.9503-0.40543-0.2703-0.98213-0.50384-1.7278-0.69958l-0.8303-0.21552c-0.75962-0.19574-1.3291-0.45222-1.7066-0.77379-0.35416-0.3029-0.52998-0.71581-0.52998-1.2331 0-0.8388 0.23356-1.4288 0.69958-1.7737 0.5126-0.37747 1.1796-0.56162 1.9999-0.54764 0.55457 0.009 1.011 0.07435 1.3744 0.1908 0.55455 0.1771 1.0626 0.37935 1.5193 0.60772v-0.6572c-0.10257-0.07453-0.59853-0.25518-1.484-0.54411-0.34485-0.1118-0.83972-0.1695-1.4875-0.1695zm23.407 0c-1.0998 0.0054-1.9186 0.24785-2.4592 0.72786-0.58252 0.51727-0.87623 1.2578-0.87623 2.2224 0 0.77359 0.35757 1.3828 1.0706 1.8302 0.47066 0.2936 1.0426 0.52235 1.7136 0.68545l0.83737 0.20492c0.75029 0.18175 1.3631 0.48878 1.8338 0.92216 0.32622 0.29825 0.48759 0.70763 0.48759 1.2296 0.00001 0.89009-0.26372 1.5114-0.79497 1.8655-0.56387 0.37747-1.2742 0.56886-2.127 0.56886-0.49863 0-1.0392-0.11921-1.6217-0.35686-0.26097-0.10728-0.71846-0.35518-1.3709-0.74198v0.68545c0.4334 0.27962 0.85112 0.49873 1.2472 0.65718 0.62912 0.21902 1.3407 0.32859 2.1375 0.32859 0.76426 0 1.5096-0.23597 2.2365-0.70664 0.6664-0.43807 0.9999-1.2243 0.9999-2.3566 0-0.7829-0.38163-1.4331-1.1412-1.9503-0.40543-0.2703-0.9786-0.50384-1.7242-0.69958l-0.83384-0.21552c-0.75961-0.19574-1.3256-0.45222-1.703-0.77379-0.35417-0.3029-0.53352-0.71581-0.53352-1.2331 0-0.8388 0.23356-1.4288 0.69958-1.7737 0.51262-0.37747 1.1796-0.56162 1.9999-0.54764 0.55456 0.009 1.0145 0.07435 1.378 0.1908 0.55455 0.1771 1.059 0.37935 1.5158 0.60772v-0.6572c-0.10257-0.07453-0.595-0.25518-1.4804-0.54411-0.34487-0.1118-0.84327-0.1695-1.491-0.1695zm31.072 0c-1.3561 0-2.4422 0.4912-3.2577 1.4698-0.81085 0.98331-1.2154 2.3005-1.2154 3.9502s0.40458 2.961 1.2154 3.9395c0.81552 0.97864 1.9016 1.4698 3.2577 1.4698 1.3515 0 2.4326-0.49359 3.2436-1.4769 0.81087-0.97864 1.2154-2.2875 1.2154-3.9324 0-1.6497-0.40455-2.9668-1.2154-3.9502-0.81085-0.97862-1.892-1.4698-3.2436-1.4698zm-259.39 0.1908v10.434h6.0276v-0.56532h-5.314v-4.7168h4.9712v-0.56884h-4.9712v-4.0032h5.1868v-0.57946h-5.9004zm14.045 0 3.6888 5.4659v4.9677h0.70665v-4.9677l3.6922-5.4659h-0.7985l-3.2294 4.8087-3.2506-4.8087h-0.80912zm16.104 0v10.434h6.0242v-0.56532h-5.3103v-4.7168h4.9677v-0.56884h-4.9677v-4.0032h5.1868v-0.57946h-5.9004zm14.041 0v10.434h5.7803v-0.57239h-5.0808v-9.8613h-0.69958zm17.783 0-3.9854 10.434h0.74196l1.2366-3.2754h4.8724l1.2437 3.2754h0.7985l-3.9925-10.434h-0.9151zm27.591 0v10.434h0.70313v-5.2821h5.837v5.2821h0.70663v-10.434h-0.70663v4.5826h-5.837v-4.5826h-0.70313zm27.994 0-3.9854 10.434h0.74199l1.2366-3.2754h4.8724l1.2437 3.2754h0.79849l-3.9925-10.434h-0.9151zm12.924 0v10.434h0.69956v-4.7168h1.8939c0.6198 0 1.1099 0.12157 1.4733 0.36392 0.35419 0.24232 0.72618 0.73719 1.113 1.4875l1.4875 2.8655h0.74904l-1.4627-2.8514c-0.35419-0.68039-0.62511-1.1392-0.81617-1.3815-0.27029-0.33555-0.55199-0.55468-0.8409-0.65718 0.6058-0.1677 1.0392-0.47112 1.3002-0.9045 0.27497-0.44272 0.4134-0.98814 0.4134-1.6359 0-1.0066-0.26131-1.7591-0.78792-2.2576-0.52658-0.49864-1.3248-0.74551-2.392-0.74551h-2.83zm15.433 0v0.57239h3.7029v9.8613h0.70663v-9.8613h3.7063v-0.57239h-8.1158zm16.133 0v10.434h0.72786v-10.434h-0.72786zm23.407 0v0.57239h3.7063v9.8613h0.70664v-9.8613h3.7029v-0.57239h-8.1158zm54.207 0v10.434h0.70665v-5.2821h5.837v5.2821h0.70664v-10.434h-0.70664v4.5826h-5.837v-4.5826h-0.70665zm32.217 0v10.434h0.69958v-4.4872h2.1448c1.0392 0 1.8278-0.24926 2.3636-0.75257 0.53125-0.5033 0.79852-1.2473 0.79852-2.226 0-0.97397-0.26727-1.712-0.79852-2.2153-0.53592-0.5033-1.3245-0.75258-2.3636-0.75258h-2.8443zm-12.476 0.35686c1.1417 0 2.0496 0.43584 2.7206 1.3073 0.66641 0.87146 0.99637 2.0597 0.99637 3.565 0 1.4959-0.32996 2.6795-0.99637 3.5509-0.67107 0.87144-1.5788 1.3073-2.7206 1.3073-1.1417 0-2.052-0.43584-2.7276-1.3073-0.67107-0.87145-1.007-2.055-1.007-3.5509 0-1.5052 0.3359-2.6936 1.007-3.565 0.67572-0.87144 1.5859-1.3073 2.7276-1.3073zm-128.22 0.21552h2.3036c0.74562 0 1.3103 0.19024 1.6924 0.57239 0.38213 0.38212 0.57237 0.94919 0.57237 1.6995 0 0.75494-0.19024 1.3268-0.57237 1.7136-0.38214 0.3868-0.9468 0.57946-1.6924 0.57946h-2.3036v-4.5649zm141.4 0.0072h2.1448c0.77824-0.000018 1.3814 0.20708 1.8055 0.62183 0.42874 0.41942 0.64305 1.007 0.64305 1.7666 0 0.77357-0.21431 1.3695-0.64305 1.7843-0.42406 0.41475-1.0272 0.62185-1.8055 0.62185h-2.1448v-4.7946zm-210.15 0.12356 2.2012 5.8722h-4.4377l2.2365-5.8722zm55.582 0 2.2048 5.8722h-4.4413l2.2365-5.8722z"/></svg>
